<svg width="36" height="34" viewBox="0 0 36 34" fill="none" xmlns="http://www.w3.org/2000/svg">
<path d="M33 18.5H3C2.20435 18.5 1.44129 18.8161 0.87868 19.3787C0.31607 19.9413 0 20.7044 0 21.5V30.5C0 31.2956 0.31607 32.0587 0.87868 32.6213C1.44129 33.1839 2.20435 33.5 3 33.5H33C33.7956 33.5 34.5587 33.1839 35.1213 32.6213C35.6839 32.0587 36 31.2956 36 30.5V21.5C36 20.7044 35.6839 19.9413 35.1213 19.3787C34.5587 18.8161 33.7956 18.5 33 18.5ZM33 30.5H3V21.5H33V30.5ZM33 0.5H3C2.20435 0.5 1.44129 0.81607 0.87868 1.37868C0.31607 1.94129 0 2.70435 0 3.5V12.5C0 13.2956 0.31607 14.0587 0.87868 14.6213C1.44129 15.1839 2.20435 15.5 3 15.5H33C33.7956 15.5 34.5587 15.1839 35.1213 14.6213C35.6839 14.0587 36 13.2956 36 12.5V3.5C36 2.70435 35.6839 1.94129 35.1213 1.37868C34.5587 0.81607 33.7956 0.5 33 0.5ZM33 12.5H3V3.5H33V12.5ZM30 8C30 8.44501 29.868 8.88002 29.6208 9.25003C29.3736 9.62004 29.0222 9.90843 28.611 10.0787C28.1999 10.249 27.7475 10.2936 27.311 10.2068C26.8746 10.12 26.4737 9.90566 26.159 9.59099C25.8443 9.27632 25.63 8.87541 25.5432 8.43895C25.4564 8.0025 25.501 7.5501 25.6713 7.13896C25.8416 6.72783 26.13 6.37643 26.5 6.12919C26.87 5.88196 27.305 5.75 27.75 5.75C28.3467 5.75 28.919 5.98705 29.341 6.40901C29.7629 6.83097 30 7.40326 30 8ZM30 26C30 26.445 29.868 26.88 29.6208 27.25C29.3736 27.62 29.0222 27.9084 28.611 28.0787C28.1999 28.249 27.7475 28.2936 27.311 28.2068C26.8746 28.12 26.4737 27.9057 26.159 27.591C25.8443 27.2763 25.63 26.8754 25.5432 26.439C25.4564 26.0025 25.501 25.5501 25.6713 25.139C25.8416 24.7278 26.13 24.3764 26.5 24.1292C26.87 23.882 27.305 23.75 27.75 23.75C28.3467 23.75 28.919 23.9871 29.341 24.409C29.7629 24.831 30 25.4033 30 26Z" fill="#EABD5F"/>
</svg>
