<svg width="48" height="48" viewBox="0 0 48 48" fill="none" xmlns="http://www.w3.org/2000/svg">
<path d="M42 13.5H39V12C39 10.8065 38.5259 9.66193 37.682 8.81802C36.8381 7.97411 35.6935 7.5 34.5 7.5H7.5C6.30653 7.5 5.16193 7.97411 4.31802 8.81802C3.47411 9.66193 3 10.8065 3 12V30C3 31.1935 3.47411 32.3381 4.31802 33.182C5.16193 34.0259 6.30653 34.5 7.5 34.5H28.5V36C28.5 37.1935 28.9741 38.3381 29.818 39.182C30.6619 40.0259 31.8065 40.5 33 40.5H42C43.1935 40.5 44.3381 40.0259 45.182 39.182C46.0259 38.3381 46.5 37.1935 46.5 36V18C46.5 16.8065 46.0259 15.6619 45.182 14.818C44.3381 13.9741 43.1935 13.5 42 13.5ZM7.5 31.5C7.10218 31.5 6.72064 31.342 6.43934 31.0607C6.15804 30.7794 6 30.3978 6 30V12C6 11.6022 6.15804 11.2206 6.43934 10.9393C6.72064 10.658 7.10218 10.5 7.5 10.5H34.5C34.8978 10.5 35.2794 10.658 35.5607 10.9393C35.842 11.2206 36 11.6022 36 12V13.5H33C31.8065 13.5 30.6619 13.9741 29.818 14.818C28.9741 15.6619 28.5 16.8065 28.5 18V31.5H7.5ZM43.5 36C43.5 36.3978 43.342 36.7794 43.0607 37.0607C42.7794 37.342 42.3978 37.5 42 37.5H33C32.6022 37.5 32.2206 37.342 31.9393 37.0607C31.658 36.7794 31.5 36.3978 31.5 36V18C31.5 17.6022 31.658 17.2206 31.9393 16.9393C32.2206 16.658 32.6022 16.5 33 16.5H42C42.3978 16.5 42.7794 16.658 43.0607 16.9393C43.342 17.2206 43.5 17.6022 43.5 18V36ZM25.5 39C25.5 39.3978 25.342 39.7794 25.0607 40.0607C24.7794 40.342 24.3978 40.5 24 40.5H16.5C16.1022 40.5 15.7206 40.342 15.4393 40.0607C15.158 39.7794 15 39.3978 15 39C15 38.6022 15.158 38.2206 15.4393 37.9393C15.7206 37.658 16.1022 37.5 16.5 37.5H24C24.3978 37.5 24.7794 37.658 25.0607 37.9393C25.342 38.2206 25.5 38.6022 25.5 39ZM40.5 21C40.5 21.3978 40.342 21.7794 40.0607 22.0607C39.7794 22.342 39.3978 22.5 39 22.5H36C35.6022 22.5 35.2206 22.342 34.9393 22.0607C34.658 21.7794 34.5 21.3978 34.5 21C34.5 20.6022 34.658 20.2206 34.9393 19.9393C35.2206 19.658 35.6022 19.5 36 19.5H39C39.3978 19.5 39.7794 19.658 40.0607 19.9393C40.342 20.2206 40.5 20.6022 40.5 21Z" fill="#BB72E9"/>
</svg>
