<svg width="14" height="12" viewBox="0 0 14 12" fill="none" xmlns="http://www.w3.org/2000/svg">
<path id="Vector" d="M14 3.87524C14 8.25024 7.51312 11.7915 7.23687 11.9377C7.16406 11.9769 7.08268 11.9974 7 11.9974C6.91732 11.9974 6.83594 11.9769 6.76312 11.9377C6.48688 11.7915 0 8.25024 0 3.87524C0.00115796 2.84789 0.409788 1.86294 1.13624 1.13648C1.86269 0.410032 2.84764 0.0014021 3.875 0.000244141C5.16563 0.000244141 6.29562 0.555244 7 1.49337C7.70438 0.555244 8.83438 0.000244141 10.125 0.000244141C11.1524 0.0014021 12.1373 0.410032 12.8638 1.13648C13.5902 1.86294 13.9988 2.84789 14 3.87524Z" fill="#BB72E9"/>
</svg>
