<svg width="48" height="48" viewBox="0 0 48 48" fill="none" xmlns="http://www.w3.org/2000/svg">
<path d="M46.5 24C46.5002 26.0768 45.8844 28.1071 44.7307 29.8339C43.5769 31.5608 41.937 32.9067 40.0183 33.7015C38.0996 34.4963 35.9883 34.7042 33.9514 34.299C31.9145 33.8938 30.0435 32.8936 28.575 31.425L28.5131 31.3594L17.2725 18.6657C16.2201 17.6256 14.8836 16.92 13.4312 16.6378C11.9788 16.3555 10.4753 16.5092 9.10999 17.0794C7.74468 17.6496 6.57854 18.611 5.75833 19.8424C4.93811 21.0739 4.50047 22.5204 4.50047 24C4.50047 25.4796 4.93811 26.9262 5.75833 28.1576C6.57854 29.3891 7.74468 30.3504 9.10999 30.9207C10.4753 31.4909 11.9788 31.6446 13.4312 31.3623C14.8836 31.08 16.2201 30.3745 17.2725 29.3344L18.87 27.5307C19.0006 27.3829 19.1591 27.2624 19.3363 27.1759C19.5135 27.0893 19.706 27.0386 19.9029 27.0265C20.0997 27.0144 20.297 27.0412 20.4835 27.1053C20.6699 27.1695 20.842 27.2697 20.9897 27.4003C21.1374 27.531 21.258 27.6894 21.3445 27.8666C21.431 28.0438 21.4818 28.2364 21.4939 28.4332C21.506 28.63 21.4792 28.8273 21.415 29.0138C21.3509 29.2003 21.2506 29.3723 21.12 29.52L19.4906 31.3594L19.4288 31.425C17.9603 32.8934 16.0893 33.8933 14.0526 34.2984C12.0158 34.7034 9.90465 34.4954 7.98609 33.7007C6.06753 32.9059 4.42772 31.5601 3.27401 29.8334C2.1203 28.1067 1.50452 26.0767 1.50452 24C1.50452 21.9234 2.1203 19.8933 3.27401 18.1667C4.42772 16.44 6.06753 15.0941 7.98609 14.2994C9.90465 13.5046 12.0158 13.2966 14.0526 13.7017C16.0893 14.1068 17.9603 15.1067 19.4288 16.575L19.4906 16.6407L30.7313 29.3344C31.7836 30.3745 33.1201 31.08 34.5726 31.3623C36.025 31.6446 37.5285 31.4909 38.8938 30.9207C40.2591 30.3504 41.4252 29.3891 42.2454 28.1576C43.0657 26.9262 43.5033 25.4796 43.5033 24C43.5033 22.5204 43.0657 21.0739 42.2454 19.8424C41.4252 18.611 40.2591 17.6496 38.8938 17.0794C37.5285 16.5092 36.025 16.3555 34.5726 16.6378C33.1201 16.92 31.7836 17.6256 30.7313 18.6657L29.1338 20.4694C28.8699 20.7678 28.4984 20.9491 28.1009 20.9736C27.7034 20.998 27.3124 20.8635 27.0141 20.5997C26.7157 20.3359 26.5344 19.9644 26.5099 19.5669C26.4855 19.1693 26.6199 18.7784 26.8838 18.48L28.5131 16.6407L28.575 16.575C30.0435 15.1064 31.9145 14.1063 33.9514 13.7011C35.9883 13.2959 38.0996 13.5038 40.0183 14.2986C41.937 15.0934 43.5769 16.4393 44.7307 18.1661C45.8844 19.893 46.5002 21.9232 46.5 24Z" fill="#82BC4F"/>
</svg>
